PathFileType	4	(X/Y/Z)	C:\Users\italobelli\Desktop\GitHub\PTbot_officialCBL\Personal_Results\FLX22_noisy2.trc
DataRate	CameraRate	NumFrames	NumMarkers	Units	OrigDataRate	OrigDataStartFrame	OrigNumFrames
106.125000	106.125000	47	9	m	106.125000	1	850
Frame#	Time		gu		centelbow		EpL		centpxt8		centijc7		ij		ts		aa		ai
			X1	Y1	Z1	X2	Y2	Z2	X3	Y3	Z3	X4	Y4	Z4	X5	Y5	Z5	X6	Y6	Z6	X7	Y7	Z7	X8	Y8	Z8	X9	Y9	Z9

1	0	-0.079287	-0.019084	0.16483	-0.1329	-0.26204	0.18367	-0.11706	-0.25953	0.21164	-0.046816	-0.15316	-0.008669	-0.046816	0.031938	-0.008669	0	0	0	-0.13512	0.029943	0.053246	-0.10617	0.018569	0.16839	-0.15465	-0.081877	0.052509
2	0.0094229	-0.079281	-0.019071	0.16482	-0.13296	-0.26205	0.18359	-0.11713	-0.25955	0.21156	-0.046816	-0.15316	-0.008669	-0.046816	0.031938	-0.008669	0	0	0	-0.1351	0.02995	0.053244	-0.10615	0.018575	0.16839	-0.15462	-0.081873	0.052502
3	0.018846	-0.079276	-0.019058	0.1648	-0.13302	-0.26206	0.18351	-0.11719	-0.25956	0.21148	-0.046816	-0.15316	-0.008669	-0.046816	0.031938	-0.008669	0	0	0	-0.13508	0.029956	0.053243	-0.10614	0.018581	0.16839	-0.15458	-0.081869	0.052495
4	0.028269	-0.07927	-0.019047	0.16479	-0.13308	-0.26207	0.18344	-0.11725	-0.25958	0.21141	-0.046816	-0.15316	-0.008669	-0.046816	0.031938	-0.008669	0	0	0	-0.13507	0.029963	0.053242	-0.10612	0.018586	0.16839	-0.15455	-0.081865	0.052489
5	0.037691	-0.079263	-0.019036	0.16478	-0.13314	-0.26208	0.18336	-0.1173	-0.2596	0.21134	-0.046816	-0.15316	-0.008669	-0.046816	0.031938	-0.008669	0	0	0	-0.13505	0.029969	0.053241	-0.10611	0.018591	0.16839	-0.15452	-0.081861	0.052484
6	0.047114	-0.079257	-0.019027	0.16476	-0.13319	-0.26208	0.18329	-0.11735	-0.25961	0.21127	-0.046816	-0.15316	-0.008669	-0.046816	0.031938	-0.008669	0	0	0	-0.13503	0.029974	0.05324	-0.10609	0.018596	0.16839	-0.15449	-0.081858	0.052479
7	0.056537	-0.07925	-0.019018	0.16475	-0.13324	-0.26209	0.18322	-0.1174	-0.25962	0.2112	-0.046816	-0.15316	-0.008669	-0.046816	0.031938	-0.008669	0	0	0	-0.13501	0.02998	0.053239	-0.10608	0.018601	0.16839	-0.15446	-0.081854	0.052474
8	0.06596	-0.079244	-0.01901	0.16474	-0.13329	-0.2621	0.18315	-0.11745	-0.25964	0.21113	-0.046816	-0.15316	-0.008669	-0.046816	0.031938	-0.008669	0	0	0	-0.135	0.029985	0.053239	-0.10606	0.018605	0.16839	-0.15443	-0.081851	0.052469
9	0.075383	-0.079237	-0.019002	0.16473	-0.13333	-0.26211	0.18309	-0.1175	-0.25965	0.21107	-0.046816	-0.15316	-0.008669	-0.046816	0.031938	-0.008669	0	0	0	-0.13498	0.029989	0.053238	-0.10605	0.018609	0.16839	-0.1544	-0.081847	0.052465
10	0.084806	-0.07923	-0.018996	0.16472	-0.13337	-0.26212	0.18302	-0.11754	-0.25966	0.21101	-0.046816	-0.15316	-0.008669	-0.046816	0.031938	-0.008669	0	0	0	-0.13496	0.029994	0.053238	-0.10603	0.018613	0.16839	-0.15437	-0.081844	0.052462
11	0.094229	-0.079222	-0.01899	0.16471	-0.13341	-0.26212	0.18296	-0.11758	-0.25967	0.21094	-0.046816	-0.15316	-0.008669	-0.046816	0.031938	-0.008669	0	0	0	-0.13495	0.029998	0.053238	-0.10602	0.018616	0.16839	-0.15434	-0.081841	0.052459
12	0.10365	-0.079215	-0.018985	0.1647	-0.13345	-0.26213	0.1829	-0.11761	-0.25968	0.21089	-0.046816	-0.15316	-0.008669	-0.046816	0.031938	-0.008669	0	0	0	-0.13493	0.030002	0.053238	-0.106	0.01862	0.16839	-0.15432	-0.081838	0.052456
13	0.11307	-0.079207	-0.018981	0.16469	-0.13348	-0.26214	0.18285	-0.11765	-0.25969	0.21083	-0.046816	-0.15316	-0.008669	-0.046816	0.031938	-0.008669	0	0	0	-0.13492	0.030006	0.053238	-0.10599	0.018623	0.16839	-0.15429	-0.081836	0.052453
14	0.1225	-0.0792	-0.018978	0.16468	-0.13351	-0.26215	0.18279	-0.11768	-0.2597	0.21077	-0.046816	-0.15316	-0.008669	-0.046816	0.031938	-0.008669	0	0	0	-0.1349	0.03001	0.053238	-0.10597	0.018625	0.16839	-0.15427	-0.081833	0.052451
15	0.13192	-0.079192	-0.018976	0.16467	-0.13354	-0.26215	0.18274	-0.11771	-0.25971	0.21072	-0.046816	-0.15316	-0.008669	-0.046816	0.031938	-0.008669	0	0	0	-0.13489	0.030013	0.053239	-0.10596	0.018628	0.16839	-0.15424	-0.08183	0.05245
16	0.14134	-0.079184	-0.018974	0.16466	-0.13357	-0.26216	0.18268	-0.11774	-0.25972	0.21067	-0.046816	-0.15316	-0.008669	-0.046816	0.031938	-0.008669	0	0	0	-0.13487	0.030016	0.053239	-0.10594	0.01863	0.16839	-0.15422	-0.081828	0.052448
17	0.15077	-0.079176	-0.018973	0.16465	-0.1336	-0.26217	0.18263	-0.11776	-0.25973	0.21062	-0.046816	-0.15316	-0.008669	-0.046816	0.031938	-0.008669	0	0	0	-0.13486	0.030019	0.05324	-0.10593	0.018632	0.16839	-0.15419	-0.081825	0.052447
18	0.16019	-0.079168	-0.018973	0.16464	-0.13362	-0.26217	0.18258	-0.11778	-0.25974	0.21057	-0.046816	-0.15316	-0.008669	-0.046816	0.031938	-0.008669	0	0	0	-0.13485	0.030022	0.053241	-0.10592	0.018634	0.16839	-0.15417	-0.081823	0.052446
19	0.16961	-0.079159	-0.018973	0.16463	-0.13364	-0.26218	0.18254	-0.11781	-0.25975	0.21052	-0.046816	-0.15316	-0.008669	-0.046816	0.031938	-0.008669	0	0	0	-0.13483	0.030024	0.053241	-0.1059	0.018636	0.16839	-0.15415	-0.081821	0.052446
20	0.17903	-0.079151	-0.018975	0.16463	-0.13366	-0.26219	0.18249	-0.11782	-0.25975	0.21047	-0.046816	-0.15316	-0.008669	-0.046816	0.031938	-0.008669	0	0	0	-0.13482	0.030027	0.053243	-0.10589	0.018637	0.16839	-0.15413	-0.081819	0.052445
21	0.18846	-0.079142	-0.018977	0.16462	-0.13368	-0.26219	0.18245	-0.11784	-0.25976	0.21043	-0.046816	-0.15316	-0.008669	-0.046816	0.031938	-0.008669	0	0	0	-0.13481	0.030029	0.053244	-0.10588	0.018638	0.16839	-0.15411	-0.081817	0.052445
22	0.19788	-0.079134	-0.018979	0.16461	-0.1337	-0.2622	0.18241	-0.11786	-0.25977	0.21039	-0.046816	-0.15316	-0.008669	-0.046816	0.031938	-0.008669	0	0	0	-0.1348	0.030031	0.053245	-0.10586	0.018639	0.16839	-0.15409	-0.081814	0.052446
23	0.2073	-0.079125	-0.018982	0.1646	-0.13371	-0.26221	0.18237	-0.11787	-0.25977	0.21035	-0.046816	-0.15316	-0.008669	-0.046816	0.031938	-0.008669	0	0	0	-0.13478	0.030033	0.053246	-0.10585	0.01864	0.16839	-0.15408	-0.081813	0.052446
24	0.21673	-0.079116	-0.018986	0.1646	-0.13373	-0.26221	0.18233	-0.11789	-0.25978	0.21031	-0.046816	-0.15316	-0.008669	-0.046816	0.031938	-0.008669	0	0	0	-0.13477	0.030034	0.053248	-0.10584	0.01864	0.16839	-0.15406	-0.081811	0.052447
25	0.22615	-0.079107	-0.018991	0.16459	-0.13374	-0.26222	0.18229	-0.1179	-0.25978	0.21027	-0.046816	-0.15316	-0.008669	-0.046816	0.031938	-0.008669	0	0	0	-0.13476	0.030036	0.053249	-0.10583	0.01864	0.16839	-0.15405	-0.081809	0.052448
26	0.23557	-0.079099	-0.018996	0.16458	-0.13375	-0.26223	0.18225	-0.11791	-0.25979	0.21023	-0.046816	-0.15316	-0.008669	-0.046816	0.031938	-0.008669	0	0	0	-0.13475	0.030037	0.053251	-0.10581	0.018641	0.16839	-0.15403	-0.081807	0.052449
27	0.24499	-0.07909	-0.019002	0.16458	-0.13376	-0.26223	0.18222	-0.11792	-0.25979	0.2102	-0.046816	-0.15316	-0.008669	-0.046816	0.031938	-0.008669	0	0	0	-0.13474	0.030038	0.053253	-0.1058	0.01864	0.1684	-0.15402	-0.081805	0.05245
28	0.25442	-0.079081	-0.019009	0.16457	-0.13377	-0.26224	0.18218	-0.11793	-0.2598	0.21016	-0.046816	-0.15316	-0.008669	-0.046816	0.031938	-0.008669	0	0	0	-0.13473	0.030039	0.053255	-0.10579	0.01864	0.1684	-0.15401	-0.081804	0.052452
29	0.26384	-0.079071	-0.019016	0.16457	-0.13378	-0.26224	0.18215	-0.11793	-0.2598	0.21013	-0.046816	-0.15316	-0.008669	-0.046816	0.031938	-0.008669	0	0	0	-0.13472	0.03004	0.053257	-0.10578	0.01864	0.1684	-0.154	-0.081802	0.052454
30	0.27326	-0.079062	-0.019024	0.16456	-0.13379	-0.26225	0.18212	-0.11794	-0.25981	0.2101	-0.046816	-0.15316	-0.008669	-0.046816	0.031938	-0.008669	0	0	0	-0.13471	0.030041	0.053259	-0.10577	0.018639	0.1684	-0.15399	-0.0818	0.052456
31	0.28269	-0.079053	-0.019033	0.16456	-0.1338	-0.26226	0.18209	-0.11794	-0.25981	0.21006	-0.046816	-0.15316	-0.008669	-0.046816	0.031938	-0.008669	0	0	0	-0.1347	0.030042	0.053261	-0.10576	0.018638	0.1684	-0.15398	-0.081799	0.052458
32	0.29211	-0.079044	-0.019042	0.16456	-0.1338	-0.26226	0.18206	-0.11795	-0.25981	0.21004	-0.046816	-0.15316	-0.008669	-0.046816	0.031938	-0.008669	0	0	0	-0.13469	0.030043	0.053263	-0.10575	0.018637	0.1684	-0.15397	-0.081797	0.05246
33	0.30153	-0.079035	-0.019051	0.16455	-0.13381	-0.26227	0.18204	-0.11795	-0.25982	0.21001	-0.046816	-0.15316	-0.008669	-0.046816	0.031938	-0.008669	0	0	0	-0.13469	0.030043	0.053266	-0.10574	0.018636	0.1684	-0.15397	-0.081796	0.052463
34	0.31095	-0.079025	-0.019062	0.16455	-0.13381	-0.26227	0.18201	-0.11796	-0.25982	0.20998	-0.046816	-0.15316	-0.008669	-0.046816	0.031938	-0.008669	0	0	0	-0.13468	0.030044	0.053268	-0.10573	0.018635	0.1684	-0.15396	-0.081794	0.052465
35	0.32038	-0.079016	-0.019072	0.16455	-0.13382	-0.26228	0.18198	-0.11796	-0.25982	0.20995	-0.046816	-0.15316	-0.008669	-0.046816	0.031938	-0.008669	0	0	0	-0.13467	0.030044	0.053271	-0.10572	0.018633	0.16841	-0.15396	-0.081793	0.052468
36	0.3298	-0.079007	-0.019084	0.16454	-0.13382	-0.26228	0.18196	-0.11796	-0.25983	0.20993	-0.046816	-0.15316	-0.008669	-0.046816	0.031938	-0.008669	0	0	0	-0.13467	0.030045	0.053273	-0.10571	0.018631	0.16841	-0.15396	-0.081792	0.05247
37	0.33922	-0.078997	-0.019096	0.16454	-0.13383	-0.26229	0.18194	-0.11796	-0.25983	0.2099	-0.046816	-0.15316	-0.008669	-0.046816	0.031938	-0.008669	0	0	0	-0.13466	0.030045	0.053276	-0.1057	0.018629	0.16841	-0.15396	-0.08179	0.052473
38	0.34865	-0.078988	-0.019108	0.16454	-0.13383	-0.2623	0.18192	-0.11796	-0.25983	0.20988	-0.046816	-0.15316	-0.008669	-0.046816	0.031938	-0.008669	0	0	0	-0.13466	0.030045	0.053278	-0.10569	0.018627	0.16841	-0.15396	-0.081789	0.052476
39	0.35807	-0.078979	-0.019121	0.16454	-0.13383	-0.2623	0.18189	-0.11796	-0.25984	0.20986	-0.046816	-0.15316	-0.008669	-0.046816	0.031938	-0.008669	0	0	0	-0.13465	0.030045	0.053281	-0.10568	0.018625	0.16841	-0.15397	-0.081787	0.052479
40	0.36749	-0.078969	-0.019135	0.16453	-0.13383	-0.26231	0.18187	-0.11796	-0.25984	0.20984	-0.046816	-0.15316	-0.008669	-0.046816	0.031938	-0.008669	0	0	0	-0.13465	0.030046	0.053284	-0.10567	0.018623	0.16841	-0.15397	-0.081786	0.052482
41	0.37691	-0.07896	-0.019149	0.16453	-0.13384	-0.26231	0.18186	-0.11797	-0.25984	0.20982	-0.046816	-0.15316	-0.008669	-0.046816	0.031938	-0.008669	0	0	0	-0.13464	0.030046	0.053287	-0.10566	0.01862	0.16841	-0.15398	-0.081785	0.052485
42	0.38634	-0.078951	-0.019163	0.16453	-0.13384	-0.26232	0.18184	-0.11797	-0.25985	0.2098	-0.046816	-0.15316	-0.008669	-0.046816	0.031938	-0.008669	0	0	0	-0.13464	0.030046	0.05329	-0.10565	0.018618	0.16841	-0.15398	-0.081783	0.052488
43	0.39576	-0.078941	-0.019178	0.16453	-0.13384	-0.26232	0.18182	-0.11797	-0.25985	0.20978	-0.046816	-0.15316	-0.008669	-0.046816	0.031938	-0.008669	0	0	0	-0.13464	0.030046	0.053293	-0.10564	0.018615	0.16842	-0.15399	-0.081782	0.052492
44	0.40518	-0.078932	-0.019194	0.16453	-0.13385	-0.26233	0.1818	-0.11797	-0.25985	0.20976	-0.046816	-0.15316	-0.008669	-0.046816	0.031938	-0.008669	0	0	0	-0.13463	0.030046	0.053296	-0.10564	0.018612	0.16842	-0.15401	-0.08178	0.052495
45	0.41461	-0.078923	-0.01921	0.16453	-0.13385	-0.26234	0.18179	-0.11797	-0.25986	0.20974	-0.046816	-0.15316	-0.008669	-0.046816	0.031938	-0.008669	0	0	0	-0.13463	0.030046	0.053299	-0.10563	0.018609	0.16842	-0.15402	-0.081779	0.052498
46	0.42403	-0.078914	-0.019226	0.16453	-0.13385	-0.26234	0.18177	-0.11797	-0.25986	0.20972	-0.046816	-0.15316	-0.008669	-0.046816	0.031938	-0.008669	0	0	0	-0.13463	0.030046	0.053302	-0.10562	0.018606	0.16842	-0.15403	-0.081778	0.052501
47	0.43345	-0.078905	-0.019243	0.16453	-0.13386	-0.26235	0.18176	-0.11797	-0.25986	0.20971	-0.046816	-0.15316	-0.008669	-0.046816	0.031938	-0.008669	0	0	0	-0.13463	0.030046	0.053305	-0.10562	0.018603	0.16842	-0.15405	-0.081776	0.052504
